<svg width="50" height="45" viewBox="0 0 50 45" fill="none" xmlns="http://www.w3.org/2000/svg">
<path d="M45.6653 7.29965V21.9048L32.7848 29.2045L24.8615 24.7115H24.8556L19.9043 21.9048V7.29965L32.7848 0L45.6653 7.29965Z" fill="url(#paint0_linear_98_979)"/>
<path d="M49.9999 31.3226V40.4428L41.9577 45L35.6869 41.4464H35.681L33.9097 40.4428V31.3226L41.9577 26.7654L49.9999 31.3226Z" fill="url(#paint1_linear_98_979)"/>
<path d="M30.3259 29.9396V34.7827L15.1629 43.3742L5.70617 38.0124C5.70023 38.0124 5.70022 38.0065 5.69427 38.0065L0 34.7797V17.5926L15.1629 9.00339L18.0279 10.6249V22.9667L18.9611 23.4977C18.9671 23.4977 18.973 23.5035 18.9789 23.5088L30.3259 29.9396Z" fill="url(#paint2_linear_98_979)"/>
<g style="mix-blend-mode:screen" opacity="0.4">
<g style="mix-blend-mode:screen" opacity="0.4">
<path d="M43.8816 8.3091L21.687 20.8895V8.3091L32.7843 2.01889L43.8816 8.3091Z" fill="white"/>
</g>
</g>
<g style="mix-blend-mode:screen" opacity="0.2">
<g style="mix-blend-mode:screen" opacity="0.2">
<path d="M48.1459 32.2912L35.6934 39.3481V32.3321L41.9583 28.7844L48.1459 32.2912Z" fill="white"/>
</g>
</g>
<g style="mix-blend-mode:screen" opacity="0.2">
<g style="mix-blend-mode:screen" opacity="0.2">
<path d="M16.2424 11.635V18.6021L1.7832 26.8027V18.6079L15.163 11.0223L16.2424 11.635Z" fill="white"/>
</g>
</g>
<g style="mix-blend-mode:multiply" opacity="0.3">
<g style="mix-blend-mode:multiply" opacity="0.3">
<path d="M30.3255 29.9396V34.7827L15.1626 43.3742L5.70581 38.0124C7.34633 38.782 8.97496 39.5937 10.5917 40.4106L13.0168 41.6535C13.7301 42.0211 14.4374 42.3945 15.1448 42.7738C15.1507 42.7674 15.1566 42.7674 15.1626 42.7615C16.3157 42.0613 17.4688 41.3611 18.6338 40.6848C19.8821 39.949 21.1362 39.2086 22.3963 38.4903C23.6564 37.772 24.9106 37.0379 26.1767 36.3261L29.6479 34.3888L29.7192 30.2576L27.2287 28.7522L24.4529 27.0361C22.6163 25.8871 20.7796 24.726 18.9786 23.5059L30.3255 29.9396Z" fill="black"/>
</g>
</g>
<g style="mix-blend-mode:multiply" opacity="0.3">
<g style="mix-blend-mode:multiply" opacity="0.3">
<path d="M45.6648 10.6016V21.9012L32.7843 29.2009L24.8611 24.7079C26.2638 25.3147 27.625 25.9852 28.9981 26.6509L31.0368 27.6721L32.7606 28.559C33.7235 27.9638 34.6983 27.392 35.6731 26.8085C36.7252 26.1725 37.807 25.5709 38.8709 24.9529C39.9349 24.335 41.0167 23.7334 42.0985 23.1324C43.0673 22.5833 44.054 22.0523 45.0407 21.5278C45.0585 20.7109 45.0823 19.8875 45.118 19.0712C45.1477 18.1312 45.1893 17.1917 45.2428 16.247C45.3403 14.3658 45.471 12.4811 45.6648 10.6016Z" fill="black"/>
</g>
</g>
<g style="mix-blend-mode:multiply" opacity="0.3">
<g style="mix-blend-mode:multiply" opacity="0.3">
<path d="M49.9997 32.0928V40.4428L41.9576 45L35.6868 41.4464C36.8221 41.884 37.9157 42.3858 39.0094 42.8935C39.5563 43.1555 40.1031 43.407 40.644 43.6812L41.9279 44.3231L43.6278 43.285L45.625 42.1239C46.2907 41.7271 46.9683 41.3653 47.64 40.9918C48.2106 40.6709 48.7872 40.3597 49.3697 40.0582C49.3875 39.4922 49.3994 38.9257 49.441 38.3544C49.4767 37.6594 49.5064 36.9657 49.5658 36.2655C49.6609 34.8761 49.7976 33.4815 49.9997 32.0928Z" fill="black"/>
</g>
</g>
<g style="mix-blend-mode:multiply" opacity="0.3">
<g style="mix-blend-mode:multiply" opacity="0.3">
<path d="M41.9577 26.7654C41.3693 27.2848 40.7511 27.7516 40.127 28.2125C39.5029 28.6735 38.8669 29.1111 38.225 29.5313C37.904 29.753 37.5711 29.9508 37.2502 30.1556C36.9292 30.3604 36.5963 30.5757 36.2635 30.7683C35.7166 31.0945 35.1638 31.4154 34.6111 31.7252C34.5992 32.2615 34.5932 32.7931 34.5635 33.3299C34.5397 33.9951 34.5041 34.6655 34.4446 35.3307C34.4208 35.6697 34.3911 36.0023 34.3555 36.3349C34.3198 36.6675 34.2901 37.0054 34.2425 37.3386C34.1474 38.0096 34.0583 38.6748 33.9097 39.3458V31.3226L41.9577 26.7654Z" fill="black"/>
</g>
</g>
<g style="mix-blend-mode:multiply" opacity="0.3">
<g style="mix-blend-mode:multiply" opacity="0.3">
<path d="M15.1629 9.00586C13.9801 9.86361 12.7675 10.663 11.555 11.4624C10.3365 12.2502 9.10609 13.0315 7.86975 13.7906C7.25159 14.1751 6.62747 14.5427 6.00336 14.9168L4.13101 16.0307C2.98978 16.6842 1.8545 17.3558 0.701377 17.9971C0.689489 19.153 0.695433 20.3078 0.659769 21.4637L0.612224 23.3945L0.534949 25.3265C0.511174 25.9742 0.487402 26.6161 0.445794 27.2573L0.332858 29.1893C0.2437 30.4789 0.148598 31.7684 0 33.058V17.5951L15.1629 9.00586Z" fill="black"/>
</g>
</g>
<g style="mix-blend-mode:multiply" opacity="0.3">
<g style="mix-blend-mode:multiply" opacity="0.3">
<path d="M32.7867 0C31.8 0.752139 30.7777 1.44709 29.7494 2.14088C28.7211 2.83467 27.681 3.4952 26.6408 4.14872C26.1177 4.48132 25.5827 4.79058 25.0596 5.11151C24.5366 5.43244 24.0076 5.7592 23.4667 6.06262C22.5156 6.61053 21.5646 7.17128 20.6017 7.70227C20.5898 8.57753 20.5839 9.45279 20.5483 10.328C20.5245 11.3311 20.4828 12.3411 20.4293 13.3506C20.4055 13.8524 20.3758 14.3601 20.3342 14.8613C20.2926 15.3625 20.2748 15.8714 20.2272 16.3784C20.1381 17.3815 20.043 18.3915 19.9062 19.401V7.29965L32.7867 0Z" fill="black"/>
</g>
</g>
<defs>
<linearGradient id="paint0_linear_98_979" x1="32.7848" y1="1.02216" x2="32.7848" y2="28.6204" gradientUnits="userSpaceOnUse">
<stop stop-color="#00F3FF"/>
<stop offset="0.238" stop-color="#00EFFC"/>
<stop offset="0.44" stop-color="#00E5F4"/>
<stop offset="0.629" stop-color="#00D3E7"/>
<stop offset="0.81" stop-color="#00BAD4"/>
<stop offset="0.983" stop-color="#009BBC"/>
<stop offset="1" stop-color="#0098BA"/>
</linearGradient>
<linearGradient id="paint1_linear_98_979" x1="41.9548" y1="27.5678" x2="41.9548" y2="42.903" gradientUnits="userSpaceOnUse">
<stop stop-color="#3E6896"/>
<stop offset="0.247" stop-color="#355881"/>
<stop offset="0.75" stop-color="#1F324E"/>
<stop offset="1" stop-color="#131D32"/>
</linearGradient>
<linearGradient id="paint2_linear_98_979" x1="8.52156" y1="13.3341" x2="19.7365" y2="38.3202" gradientUnits="userSpaceOnUse">
<stop stop-color="#49A09D"/>
<stop offset="0.149" stop-color="#4A989B"/>
<stop offset="0.375" stop-color="#4E8396"/>
<stop offset="0.65" stop-color="#54618E"/>
<stop offset="0.96" stop-color="#5D3283"/>
<stop offset="1" stop-color="#5F2C82"/>
</linearGradient>
</defs>
</svg>
